<svg xmlns="http://www.w3.org/2000/svg" viewBox="0 0 120 120">
  <defs>
    <linearGradient id="glow" x1="0%" y1="0%" x2="100%" y2="100%">
      <stop offset="0%" style="stop-color:#5b8dee"/>
      <stop offset="50%" style="stop-color:#8b6cf7"/>
      <stop offset="100%" style="stop-color:#30d4a8"/>
    </linearGradient>
    <filter id="blur">
      <feGaussianBlur stdDeviation="2" result="coloredBlur"/>
      <feMerge>
        <feMergeNode in="coloredBlur"/>
        <feMergeNode in="SourceGraphic"/>
      </feMerge>
    </filter>
  </defs>
  
  <!-- Brain left hemisphere -->
  <path d="M58 28c-8 0-15 4-19 11-3-2-7-3-10-2-7 2-12 9-12 16 0 4 2 8 5 10-1 3-1 6 0 9 2 6 7 10 13 11v14h24V49c3-1 5-4 5-7s-2-6-5-7V28h-6z" 
        fill="none" stroke="url(#glow)" stroke-width="2.5" stroke-linecap="round" filter="url(#blur)"/>
  
  <!-- Brain right hemisphere -->
  <path d="M62 28c8 0 15 4 19 11 3-2 7-3 10-2 7 2 12 9 12 16 0 4-2 8-5 10 1 3 1 6 0 9-2 6-7 10-13 11v14H51V49c-3-1-5-4-5-7s2-6 5-7V28h6z" 
        fill="none" stroke="url(#glow)" stroke-width="2.5" stroke-linecap="round" filter="url(#blur)"/>
  
  <!-- Brain center line -->
  <line x1="60" y1="32" x2="60" y2="68" stroke="url(#glow)" stroke-width="1.5" opacity="0.5"/>
  
  <!-- Brain folds left -->
  <path d="M42 42c4-2 8-1 11 2" fill="none" stroke="url(#glow)" stroke-width="1.5" opacity="0.6"/>
  <path d="M38 52c5-1 9 1 12 4" fill="none" stroke="url(#glow)" stroke-width="1.5" opacity="0.6"/>
  <path d="M44 62c4-1 7 0 9 3" fill="none" stroke="url(#glow)" stroke-width="1.5" opacity="0.6"/>
  
  <!-- Brain folds right -->
  <path d="M78 42c-4-2-8-1-11 2" fill="none" stroke="url(#glow)" stroke-width="1.5" opacity="0.6"/>
  <path d="M82 52c-5-1-9 1-12 4" fill="none" stroke="url(#glow)" stroke-width="1.5" opacity="0.6"/>
  <path d="M76 62c-4-1-7 0-9 3" fill="none" stroke="url(#glow)" stroke-width="1.5" opacity="0.6"/>
  
  <!-- Lightbulb base -->
  <rect x="52" y="72" width="16" height="6" rx="2" fill="none" stroke="url(#glow)" stroke-width="2"/>
  <rect x="54" y="78" width="12" height="3" rx="1.5" fill="none" stroke="url(#glow)" stroke-width="1.5"/>
  <path d="M56 81c0 2 2 4 4 4s4-2 4-4" fill="none" stroke="url(#glow)" stroke-width="1.5"/>
  
  <!-- Light rays -->
  <line x1="60" y1="14" x2="60" y2="22" stroke="#f5a623" stroke-width="2" opacity="0.8"/>
  <line x1="40" y1="20" x2="45" y2="26" stroke="#f5a623" stroke-width="1.5" opacity="0.6"/>
  <line x1="80" y1="20" x2="75" y2="26" stroke="#f5a623" stroke-width="1.5" opacity="0.6"/>
  <line x1="32" y1="34" x2="38" y2="36" stroke="#f5a623" stroke-width="1.5" opacity="0.5"/>
  <line x1="88" y1="34" x2="82" y2="36" stroke="#f5a623" stroke-width="1.5" opacity="0.5"/>
  
  <!-- Sparkle dots -->
  <circle cx="60" cy="10" r="2" fill="#f5a623" opacity="0.9"/>
  <circle cx="36" cy="16" r="1.5" fill="#f5a623" opacity="0.6"/>
  <circle cx="84" cy="16" r="1.5" fill="#f5a623" opacity="0.6"/>
  <circle cx="28" cy="28" r="1" fill="#f5a623" opacity="0.4"/>
  <circle cx="92" cy="28" r="1" fill="#f5a623" opacity="0.4"/>
</svg>
